<?xml version="1.0" encoding="UTF-8" standalone="no"?>
<!-- Created with Inkscape (http://www.inkscape.org/) -->

<svg
   version="1.1"
   id="svg1143"
   width="933.14154"
   height="1004.9034"
   viewBox="0 0 933.14154 1004.9034"
   sodipodi:docname="serpapi-logo-combined.svg"
   inkscape:version="1.1.2 (0a00cf5339, 2022-02-04)"
   xmlns:inkscape="http://www.inkscape.org/namespaces/inkscape"
   xmlns:sodipodi="http://sodipodi.sourceforge.net/DTD/sodipodi-0.dtd"
   xmlns:xlink="http://www.w3.org/1999/xlink"
   xmlns="http://www.w3.org/2000/svg"
   xmlns:svg="http://www.w3.org/2000/svg">
  <defs
     id="defs1147">
    <linearGradient
       inkscape:collect="always"
       id="Gradient">
      <stop
         style="stop-color:#377fea;stop-opacity:1"
         offset="0"
         id="stop120361" />
      <stop
         style="stop-color:#8d45f0;stop-opacity:0.98431373"
         offset="1"
         id="stop120363" />
    </linearGradient>
    <linearGradient
       inkscape:collect="always"
       xlink:href="#Gradient"
       id="linearGradient149"
       x1="-1135.0444"
       y1="805.77838"
       x2="-267.25079"
       y2="-62.005249"
       gradientUnits="userSpaceOnUse"
       gradientTransform="matrix(0.93194452,0,0,0.95062147,-596.98919,-34.462822)" />
  </defs>
  <sodipodi:namedview
     id="namedview1145"
     pagecolor="#ffffff"
     bordercolor="#666666"
     borderopacity="1.0"
     inkscape:pageshadow="2"
     inkscape:pageopacity="0.0"
     inkscape:pagecheckerboard="0"
     showgrid="false"
     inkscape:zoom="256"
     inkscape:cx="-747.24414"
     inkscape:cy="730.25391"
     inkscape:window-width="1920"
     inkscape:window-height="1011"
     inkscape:window-x="0"
     inkscape:window-y="32"
     inkscape:window-maximized="1"
     inkscape:current-layer="g1149"
     inkscape:snap-bbox="true">
    <inkscape:grid
       type="xygrid"
       id="grid7423"
       originx="100.1264"
       originy="-4.3771992e-09" />
  </sodipodi:namedview>
  <g
     inkscape:groupmode="layer"
     inkscape:label="Image"
     id="g1149"
     transform="translate(100.1264)">
    <path
       style="fill:#6361ec;stroke:none;stroke-width:1.33333"
       d="m 25.171899,436.17674 c 39.85154,0 94.851101,-0.42374 131.719701,-0.42374 8.1314,-10.75274 16.83631,-20.82026 24.28031,-26.95759 24.94133,-20.56667 58.11066,-28.50667 89.33335,-19.23733 66.464,19.732 88.2853,102.784 32,147.06 -8.8533,6.964 -17.24876,14.79598 -30.63166,18.38192 v 127.84342 h 203 V 555 c 0,0 -40.78233,-13.16291 -51.74834,-32.15659 C 383.40526,474.40608 411.887,397.47967 474.8736,388.177 v -93.435 c -11.7613,-1.73734 -22.67104,-7.01059 -32.36834,-13.81859 -60.524,-42.48934 -43.584,-130.03067 26.6667,-150.82801 30.748,-9.10267 67.3226,-1.41413 90.6666,20.80134 7.18488,7.18488 23.68579,29.90752 25.63304,33.28026 h 122.36696 c -0.8946,-20.82 -5.4213,-41.86693 -12.768,-61.3336 -6.304,-16.7012 -15.0506,-32.367466 -25.7586,-46.666666 -8.8907,-11.873067 -19.2627,-22.925601 -30.8067,-32.260268 C 577.71456,-5.2409901 506.67192,-0.07671046 433.17196,0 H 271.8736 v 126.27 c 44.4986,25.69128 62.51762,52.01215 63.94496,81.90674 2.432,98.99067 -148.75599,121.832 -179.97479,29.33333 C 143.84535,175.07391 180.17236,137.44381 221.8736,126.27 V 0 c -22.92,0 -45.60303,2.8448639 -67.36836,10.437024 -17.60734,6.141974 -34.084,14.643975 -49.33334,25.367308 C 93.089639,44.300466 81.923639,54.362066 72.224439,65.510067 19.897529,125.65247 25.171899,199.11007 25.171899,273.51007 V 435.753 M 524.8736,682.84342 c 21.904,-1.728 42.50636,-5.68267 62.96496,-13.86667 16.7534,-6.70133 32.3987,-15.62533 46.6667,-26.7 76.952,-59.73333 73.3333,-146.36934 73.3333,-234.10001 V 232.981 c -46.35978,0 -106.51967,-0.0124 -122.36696,0 -18.31851,32.77665 -32.51,45.83997 -60.598,61.761 v 93.435 c 20.98748,12.11713 33.41627,17.3186 46.05836,33.33308 C 606.91726,467.99675 582.5416,541.33467 524.8736,555 M 25.171899,485.51 c 0,111.04134 85.660361,197.33342 196.701701,197.33342 0,-42.84342 0.13714,-85.78112 0,-127.84342 -7.39454,-1.98136 -21.19369,-7.84725 -27.36836,-11.75125 -19.56,-12.36667 -35.50244,-33.55734 -37.61364,-57.73867 z"
       id="path1207"
       sodipodi:nodetypes="ccccccccccccccccccccscccccccccsccccscccccccccccc" />
    <path
       d="m 791.51509,762.60342 v 22 h 41.40004 v -44 h -41.40004 z m -832.49998,-14.68 c -0.54,0.04 -2.44,0.16 -4.2,0.28 -13.64,0.92 -24.76,3.62 -32.2,7.84 -11.58,6.56 -17.34,17.2 -18.9,34.96 -0.54,6.3 -0.44,19.66 0.22,27 1.98,22.28 9.54,31.42 31.98,38.7 4.8,1.54 11.02,3.16 19.64,5.1 4,0.9 9.42,2.18 12.06,2.84 14.36,3.6 19,6.5 20.5,12.78 1.04,4.38 1.04,14.86 0.02,19.58 -1.8,8.18 -7.22,11.16 -21.16,11.56 -18.32,0.56 -35.4,-1.86 -55.92,-7.9 -2.08,-0.6 -3.84,-1.02 -3.94,-0.94 -0.18,0.22 -7.26,33.08 -7.14,33.2 0.26,0.26 6.88,2.86 9.94,3.9 11.98,4.1 24.64,6.66 39.5,8 3.84,0.34 18.42,0.46 23.4,0.2 26.72,-1.44 42,-7.28 50.62,-19.36 6.86,-9.6 9.36,-23.44 8.5,-47.06 -0.46,-12.56 -1.5,-18.42 -4.32,-24.3 -5.49996,-11.44 -17.79996,-18.02 -47.09996,-25.22 -18.56,-4.56 -20.98,-5.22 -24.66,-6.68 -5.14,-2.06 -7.5,-4.4 -8.54,-8.5 -0.74,-2.9 -1.04,-11.18 -0.58,-15.8 0.8,-7.98 4.02,-11.26 12.38,-12.6 6.74,-1.08 22.92,-0.72 36.9,0.82 5.4,0.6 14.9,1.94 22.18,3.14 3.26,0.54 5.2,0.78 5.24,0.64 0.12,-0.38 4.3,-35.96 4.22,-36.02 -0.14,-0.16 -8.1,-1.7 -12.72,-2.46 -9.68,-1.62 -18.14,-2.62 -29.32,-3.44 -2.82,-0.2 -24.42,-0.42 -26.6,-0.26 z m 539.80001,2.92 c -0.2,0.58 -58.3,191.36 -58.3,191.46 0,0.06 10.1,0.08 22.44,0.06 l 22.46,-0.06 5.04,-18.2 c 2.76,-10.02 5.08,-18.4 5.16,-18.66 l 0.1,-0.44 32.16,0.04 32.13999,0.06 5.1,18.4 c 2.82,10.12 5.16,18.52 5.2,18.66 0.08,0.2 4.68,0.24 22.52,0.2 l 22.4,-0.06 -29.32,-95.8 -29.34,-95.8 -28.83999,-0.06 c -22.96,-0.04 -28.86,0 -28.92,0.2 z m 39.85999,78 c 5.96,21.92 10.84,39.92 10.84,40 0,0.1 -9.9,0.16 -22.01999,0.16 -18.26,0 -22,-0.04 -21.92,-0.26 0.06,-0.16 5.04,-18.16 11.06,-40 6.02,-21.86 11.02,-39.74 11.08,-39.74 0.06,0 4.99999,17.94 10.95999,39.84 z m -427.35999,-29.52 c -3.48002,0.18 -7.72002,0.54 -9.70002,0.8 -25.95999,3.5 -41.15999,17.18 -45.29999,40.82 -1.04,5.94 -1.06,6.18 -1.14,28.56 -0.1,22.02 -0.02,25.34 0.76,30.88 1.42,10.16 5,19.14 10.28,25.72 7.46,9.32 18.959995,15.38 33.779995,17.78 6.819995,1.12 11.480015,1.4 20.420015,1.26 10.68,-0.18 19.7,-1.18 30.7,-3.44 7.84,-1.6 19.4,-4.92 19.4,-5.54 0,-0.24 -5.78,-30.12 -5.92,-30.58 -0.08,-0.3 -0.18001,-0.3 -1.04,-0.06 -8.16,2.48 -22.1,4.78 -33.38,5.5 -4.96,0.32 -15.48,0.14 -18.22,-0.3 -8.20002,-1.34 -12.100015,-4.08 -14.060015,-9.94 -0.82,-2.48 -1.18,-5.04 -1.32,-9.84 l -0.12,-4.14 h 75.660015 v -14.76 c 0,-15.32 -0.18,-21.88 -0.72,-26.7 -2.44,-22.14 -12.1,-35.76 -29.92,-42.16 -4.5,-1.6 -10.72,-2.92 -16.56,-3.46 -3.10002,-0.3 -11.14002,-0.54 -13.6,-0.4 z m 7.8,32.68 c 4.34,0.54 7.12,1.72 9.41998,4 3.26002,3.26 4.24002,6.66 4.26002,14.9 l 0.02,4.8 H 96.615143 l -0.06002,-3 c -0.16,-8.24 1.25998,-12.94 4.919997,-16.34 2.26,-2.08 5.06,-3.42 8.46,-4.04 2.92,-0.54 6.4,-0.66 9.18,-0.32 z m 259.29999,-32.58 c -7.85999,0.54 -17,2.92 -26.14,6.8 -3.55999,1.52 -8.88,4.2 -11.62,5.84 l -2.16,1.3 -0.24,-0.62 c -0.14,-0.36 -1.12,-2.86 -2.16,-5.58 l -1.88,-4.96 h -32.5 v 101.3 c 0,92.93998 0.02,101.29998 0.32,101.29998 0.18,0 9.4,-1.26 20.48,-2.8 11.1,-1.54 20.26,-2.8 20.38,-2.8 0.16,0 0.22,-8.48 0.22,-28.95998 v -28.98 l 1.66,0.36 c 7.12,1.58 16.4,2.8 25.7,3.4 4.84,0.3 14.52,0.14 17.74,-0.3 13.58,-1.9 23.06,-7.3 29.38001,-16.72 1.51999,-2.26 3.89999,-7.14 4.87999,-10 1.52,-4.44 2.5,-9.22 3.18,-15.3 0.26,-2.32 0.32,-6.98 0.4,-27.2 0.1,-24.78 0,-30.28 -0.64,-35.5 -2,-16.44 -8.32,-27.94 -18.94,-34.52 -5.76,-3.58 -12.56,-5.54 -21.06,-6.08 -3.3,-0.22 -3.8,-0.22 -7,0.02 z m -6.7,35.98 c 3.98,0.38 6.48,1.36 8.62,3.36 2.14,2 3.32,4.4 3.88,7.9 0.44,2.74 0.44,48.44 0,51 -0.96,5.46 -3.57999,8.9 -8.08,10.54 -2.4,0.88 -4.3,1.08 -9.22,0.94 -4.5,-0.12 -8.98,-0.58 -14.2,-1.42 -3.14,-0.52 -7.42,-1.36 -8.84,-1.72 l -0.76,-0.22 v -59.54 l 0.86,-0.74 c 1.32,-1.14 5.24,-3.72 7.56,-4.96 6.04,-3.24 11.54,-4.88 17.68,-5.32 0.22,0 1.34001,0.08 2.5,0.18 z m 342.89998,-36.08 c -11.79998,0.7 -26.88,5.66 -38.74,12.74 l -2.13998,1.28 -0.98002,-2.52 c -0.53996,-1.38 -1.49996,-3.9 -2.13998,-5.58 l -1.18004,-3.04 h -32.51996 v 101.3 c 0,93.59998 0.02,101.29998 0.32,101.29998 0.18,0 9.42,-1.26 20.52,-2.8 11.10002,-1.54 20.26002,-2.8 20.36002,-2.8 0.11996,0 0.19994,-10.66 0.19994,-28.95998 v -28.96 l 3.66002,0.74 c 6.03998,1.22 11.30002,1.94 19.54,2.72 4.7,0.44 17.78004,0.5 21.00004,0.1 6.19994,-0.78 11.9,-2.4 16.57996,-4.78 3.84,-1.92 6.17998,-3.62 9.22,-6.66 5.83998,-5.84 9.4,-13.02 11.40004,-23 1.47998,-7.4 1.59996,-10.26 1.59996,-38.2 0,-27.78 -0.11998,-30.56 -1.59996,-38 -4.06004,-20.4 -16.12006,-32.16 -35.40004,-34.48 -2.6,-0.3 -7.61998,-0.52 -9.7,-0.4 z m -7.50002,36.08 c 2.52004,0.24 3.96004,0.64 5.94006,1.6 3.05998,1.5 5.04,4.16 6.11996,8.2 l 0.44002,1.7 v 50.6 l -0.44002,1.68 c -1.23998,4.62 -4.04002,7.8 -8.02,9.1 -2.61998,0.86 -3.94002,0.98 -8.83994,0.86 -4.44004,-0.12 -7.22004,-0.38 -12.70004,-1.16 -2.74002,-0.4 -9.06,-1.6 -10.53998,-2 l -0.75998,-0.2 v -59.58 l 1.15994,-0.9 c 6.54002,-5.22 15.76002,-9.2 22.9,-9.88 2.32002,-0.24 2.62004,-0.24 4.73998,-0.02 z m -432.39996,-35.48 c -9.02,2.36 -23.14,8.52 -32.5,14.18 -1.56,0.96 -2.44,1.38 -2.52,1.24 -0.06,-0.14 -0.74,-3.14 -1.48,-6.7 l -1.36,-6.44 h -34.53999 v 140.2 h 41.39999 v -85.56 l 2.16,-1.4 c 7.14,-4.62 19.54,-10.74 31.68,-15.64 1.68,-0.68 3.12,-1.3 3.2,-1.36 0.08,-0.08 -0.62,-8.74 -1.56,-19.24 -0.92,-10.5 -1.68,-19.26 -1.68,-19.46 0,-0.46 -0.48,-0.44 -2.8,0.18 z m 516.79998,72.38 v 70.1 h 41.40004 v -140.2 h -41.40004 z"
       id="path18"
       style="stroke:#ffffff;stroke-width:0.2;stroke-miterlimit:4;stroke-dasharray:none;stroke-opacity:1" />
    <rect
       style="fill:url(#linearGradient149);fill-opacity:1;stroke:none;stroke-width:1;stroke-miterlimit:4;stroke-dasharray:none;stroke-opacity:1"
       id="rect31"
       width="807.88074"
       height="824.20251"
       x="-1654.3702"
       y="-93.13707" />
  </g>
</svg>
