<svg width="240" height="240" viewBox="0 0 240 240" fill="none" xmlns="http://www.w3.org/2000/svg">
<g clip-path="url(#clip0_129_2)">
<path d="M54.1696 107.308C61.8569 107.308 72.4661 107.226 79.5779 107.226C81.1465 105.148 82.8256 103.202 84.2615 102.016C89.0726 98.0405 95.4709 96.5058 101.494 98.2975C114.314 102.111 118.524 118.165 107.666 126.723C105.959 128.069 104.339 129.583 101.758 130.276V154.986H140.916V130.276C140.916 130.276 133.049 127.731 130.934 124.06C123.272 114.698 128.766 99.8287 140.916 98.0305V79.9705C138.647 79.6347 136.542 78.6155 134.672 77.2995C122.997 69.0868 126.265 52.166 139.816 48.1461C145.747 46.3866 152.802 47.8727 157.305 52.1668C158.691 53.5555 161.874 57.9476 162.25 58.5995H185.854C185.681 54.5752 184.808 50.507 183.391 46.7443C182.175 43.5162 180.488 40.4881 178.422 37.7242C176.707 35.4292 174.706 33.2929 172.48 31.4886C160.753 21.987 147.049 22.9852 132.872 23H101.758V47.4067C110.341 52.3725 113.817 57.4601 114.092 63.2384C114.561 82.3722 85.3978 86.7872 79.3758 68.9082C77.0614 56.84 84.0687 49.5665 92.1128 47.4067V23C87.6916 23 83.3161 23.5499 79.1176 25.0174C75.7212 26.2046 72.5429 27.8479 69.6014 29.9206C67.2707 31.5628 65.1169 33.5076 63.2459 35.6624C53.1522 47.2873 54.1696 61.4859 54.1696 75.8666V107.226M150.56 154.986C154.786 154.652 158.76 153.888 162.706 152.306C165.938 151.011 168.956 149.286 171.708 147.145C186.552 135.6 185.854 118.854 185.854 101.896V68.0328C176.911 68.0328 165.307 68.0304 162.25 68.0328C158.716 74.3682 155.979 76.8932 150.56 79.9705V98.0305C154.609 100.373 157.006 101.378 159.445 104.473C166.386 113.459 161.684 127.634 150.56 130.276M54.1696 116.844C54.1696 138.307 70.6932 154.986 92.1128 154.986C92.1128 146.705 92.1392 138.406 92.1128 130.276C90.6864 129.893 88.0246 128.759 86.8335 128.004C83.0604 125.614 79.9852 121.518 79.5779 116.844L54.1696 116.844Z" fill="#6361EC"/>
<path d="M201.995 170.403V174.656H209.981V166.151H201.995V170.403ZM41.4082 167.566C41.304 167.573 40.9375 167.597 40.598 167.62C37.9669 167.798 35.8219 168.32 34.3868 169.135C32.153 170.403 31.0419 172.46 30.741 175.893C30.6368 177.11 30.6561 179.693 30.7834 181.111C31.1654 185.418 32.6237 187.185 36.9523 188.592C37.8782 188.889 39.078 189.203 40.7408 189.578C41.5124 189.752 42.5579 189.999 43.0671 190.127C45.8371 190.822 46.7322 191.383 47.0215 192.597C47.2221 193.443 47.2221 195.469 47.0254 196.381C46.6781 197.962 45.6326 198.538 42.9437 198.616C39.4098 198.724 36.1151 198.256 32.1569 197.089C31.7556 196.973 31.4162 196.892 31.3969 196.907C31.3621 196.95 29.9964 203.301 30.0196 203.324C30.0697 203.375 31.3467 203.877 31.937 204.078C34.2479 204.871 36.6899 205.365 39.5564 205.624C40.2971 205.69 43.1096 205.713 44.0702 205.663C49.2244 205.385 52.1718 204.256 53.8346 201.921C55.1579 200.065 55.6401 197.39 55.4742 192.825C55.3855 190.397 55.1849 189.264 54.6409 188.128C53.58 185.917 51.2074 184.645 45.5555 183.253C41.9753 182.372 41.5085 182.244 40.7987 181.962C39.8072 181.564 39.3519 181.111 39.1513 180.319C39.0086 179.758 38.9507 178.158 39.0394 177.265C39.1938 175.723 39.8149 175.089 41.4275 174.83C42.7276 174.621 45.8487 174.69 48.5454 174.988C49.587 175.104 51.4196 175.363 52.8238 175.595C53.4527 175.699 53.8269 175.746 53.8346 175.719C53.8578 175.645 54.6641 168.768 54.6486 168.756C54.6216 168.726 53.0862 168.428 52.195 168.281C50.3278 167.968 48.6959 167.775 46.5393 167.616C45.9953 167.577 41.8287 167.535 41.4082 167.566ZM145.534 168.13C145.495 168.242 134.288 205.118 134.288 205.137C134.288 205.149 136.236 205.153 138.617 205.149L142.949 205.137L143.921 201.62C144.454 199.683 144.901 198.063 144.917 198.013L144.936 197.928L151.139 197.935L157.339 197.947L158.323 201.504C158.867 203.46 159.318 205.083 159.326 205.11C159.341 205.149 160.229 205.157 163.67 205.149L167.991 205.137L162.335 186.62L156.676 168.103L151.112 168.092C146.684 168.084 145.545 168.092 145.534 168.13ZM153.223 183.207C154.372 187.444 155.314 190.923 155.314 190.938C155.314 190.958 153.404 190.969 151.066 190.969C147.544 190.969 146.822 190.962 146.838 190.919C146.849 190.888 147.81 187.409 148.971 183.187C150.133 178.962 151.097 175.506 151.109 175.506C151.12 175.506 152.073 178.974 153.223 183.207ZM70.7864 177.501C70.1151 177.536 69.2972 177.605 68.9153 177.655C63.9077 178.332 60.9757 180.976 60.1771 185.546C59.9764 186.694 59.9726 186.74 59.9572 191.066C59.9379 195.322 59.9533 195.964 60.1038 197.035C60.3777 198.999 61.0682 200.734 62.0867 202.006C63.5257 203.808 65.7441 204.979 68.6028 205.443C69.9183 205.659 70.8172 205.713 72.5417 205.686C74.6019 205.652 76.3418 205.458 78.4637 205.021C79.976 204.712 82.2059 204.07 82.2059 203.951C82.2059 203.904 81.0909 198.129 81.0639 198.04C81.0485 197.982 81.0292 197.982 80.8633 198.028C79.2893 198.508 76.6003 198.952 74.4244 199.091C73.4677 199.153 71.4384 199.118 70.9098 199.033C69.3281 198.774 68.5758 198.245 68.1977 197.112C68.0395 196.633 67.9701 196.138 67.9431 195.21L67.9199 194.41H82.5145V191.557C82.5145 188.596 82.4798 187.328 82.3756 186.396C81.905 182.117 80.0416 179.484 76.6042 178.247C75.7361 177.938 74.5363 177.683 73.4098 177.578C72.8118 177.52 71.2609 177.474 70.7864 177.501ZM72.291 183.818C73.1282 183.922 73.6644 184.15 74.1081 184.591C74.7369 185.221 74.926 185.878 74.9298 187.471L74.9337 188.399H67.9508L67.9392 187.819C67.9084 186.226 68.1823 185.317 68.8883 184.66C69.3242 184.258 69.8643 183.999 70.5202 183.879C71.0834 183.775 71.7547 183.752 72.291 183.818ZM122.309 177.52C120.793 177.625 119.03 178.085 117.267 178.835C116.58 179.128 115.554 179.646 115.025 179.963L114.609 180.215L114.562 180.095C114.535 180.025 114.346 179.542 114.146 179.016L113.783 178.058H107.514V197.638C107.514 215.602 107.518 217.218 107.576 217.218C107.61 217.218 109.389 216.974 111.526 216.677C113.667 216.379 115.434 216.136 115.457 216.136C115.488 216.136 115.5 214.496 115.5 210.538V204.936L115.82 205.006C117.193 205.311 118.984 205.547 120.778 205.663C121.711 205.721 123.578 205.69 124.2 205.605C126.819 205.238 128.648 204.194 129.867 202.373C130.16 201.937 130.619 200.993 130.808 200.44C131.101 199.582 131.29 198.658 131.422 197.483C131.472 197.035 131.483 196.134 131.499 192.226C131.518 187.436 131.499 186.373 131.375 185.364C130.989 182.186 129.77 179.963 127.722 178.692C126.611 178 125.299 177.621 123.659 177.516C123.023 177.474 122.926 177.474 122.309 177.52ZM121.017 184.475C121.784 184.548 122.267 184.738 122.679 185.124C123.092 185.511 123.32 185.975 123.428 186.651C123.513 187.181 123.513 196.014 123.428 196.509C123.243 197.564 122.737 198.229 121.869 198.546C121.406 198.716 121.04 198.755 120.091 198.728C119.223 198.705 118.359 198.616 117.352 198.453C116.746 198.353 115.92 198.191 115.646 198.121L115.5 198.078V186.57L115.666 186.427C115.92 186.207 116.677 185.708 117.124 185.468C118.289 184.842 119.35 184.525 120.534 184.44C120.577 184.44 120.793 184.455 121.017 184.475ZM187.161 177.501C184.885 177.636 181.976 178.595 179.688 179.963L179.275 180.211L179.086 179.724C178.982 179.457 178.797 178.97 178.674 178.645L178.446 178.058H172.173V197.638C172.173 215.73 172.177 217.218 172.235 217.218C172.269 217.218 174.052 216.974 176.193 216.677C178.334 216.379 180.101 216.136 180.12 216.136C180.143 216.136 180.159 214.075 180.159 210.538V204.94L180.865 205.083C182.03 205.319 183.045 205.458 184.634 205.609C185.541 205.694 188.064 205.706 188.685 205.628C189.881 205.478 190.98 205.164 191.883 204.704C192.624 204.333 193.075 204.005 193.662 203.417C194.788 202.288 195.475 200.9 195.861 198.971C196.146 197.541 196.169 196.988 196.169 191.588C196.169 186.218 196.146 185.681 195.861 184.243C195.077 180.3 192.751 178.027 189.032 177.578C188.531 177.52 187.562 177.478 187.161 177.501ZM185.714 184.475C186.2 184.521 186.478 184.598 186.86 184.784C187.45 185.074 187.832 185.588 188.041 186.369L188.125 186.698V196.478L188.041 196.803C187.801 197.696 187.261 198.31 186.494 198.562C185.988 198.728 185.734 198.751 184.788 198.728C183.932 198.705 183.396 198.654 182.339 198.504C181.81 198.426 180.591 198.194 180.305 198.117L180.159 198.078V186.562L180.383 186.388C181.644 185.379 183.423 184.61 184.8 184.479C185.247 184.432 185.305 184.432 185.714 184.475ZM102.306 177.617C100.566 178.073 97.8421 179.264 96.0366 180.358C95.7356 180.543 95.5659 180.624 95.5505 180.597C95.5389 180.57 95.4077 179.99 95.265 179.302L95.0026 178.058H88.34V205.157H96.3259V188.619L96.7426 188.348C98.1199 187.455 100.512 186.272 102.854 185.325C103.178 185.194 103.455 185.074 103.471 185.062C103.486 185.047 103.351 183.373 103.17 181.343C102.992 179.314 102.846 177.621 102.846 177.582C102.846 177.493 102.753 177.497 102.306 177.617ZM201.995 191.607V205.157H209.981V178.058H201.995V191.607Z" fill="black" stroke="white" stroke-width="0.2"/>
</g>
<defs>
<clipPath id="clip0_129_2">
<rect width="180" height="194.237" fill="white" transform="translate(30 23)"/>
</clipPath>
</defs>
</svg>
