<svg width="100" height="100" viewBox="0 0 100 100" fill="none" xmlns="http://www.w3.org/2000/svg">
<path d="M45.0994 0.000286328C34.1609 0.000286328 24.4427 7.04386 21.0553 17.44C17.579 18.1566 14.2952 19.6053 11.4224 21.6898C8.54967 23.7743 6.1538 26.4468 4.39427 29.5293C-1.09179 39.0111 0.16093 50.9312 7.51048 59.0583C5.24142 65.8655 6.02017 73.3146 9.64395 79.4787C15.0964 88.9941 26.0674 93.8706 36.8031 91.6015C39.1537 94.2544 42.0428 96.3756 45.2779 97.8238C48.5129 99.272 52.0196 100.014 55.564 99.9998C66.5025 99.9998 76.2207 92.9562 79.6081 82.5601C86.6517 81.1034 92.7137 76.7008 96.2355 70.4708C101.755 60.989 100.502 49.0689 93.1541 40.9418V40.9082C94.275 37.5435 94.6645 33.9782 94.2966 30.4508C93.9286 26.9234 92.8118 23.5152 91.0206 20.4542C85.5669 10.9724 74.5948 6.09472 63.8939 8.36378C61.5324 5.71783 58.6357 3.60389 55.3955 2.16204C52.1554 0.720181 48.6458 -0.0166759 45.0994 0.000286328ZM45.0994 6.50269L45.0658 6.53629C49.4683 6.53629 53.7017 8.0602 57.0879 10.8716C56.9523 10.9388 56.6811 11.108 56.4783 11.21L36.5667 22.6897C35.5504 23.2657 34.9408 24.3492 34.9408 25.5347V52.4899L26.3733 47.5462V25.2636C26.3714 20.2932 28.3426 15.5253 31.8538 12.0074C35.365 8.48943 40.129 6.51032 45.0994 6.50269ZM69.0859 14.3502C72.3856 14.3439 75.6285 15.2088 78.4868 16.8574C81.3451 18.5061 83.7175 20.8802 85.3641 23.7396C87.5312 27.5326 88.3436 31.9687 87.5984 36.2693C87.4628 36.1673 87.1928 36.0329 87.0225 35.9309L67.1109 24.4164C66.6099 24.1331 66.0442 23.9842 65.4688 23.9842C64.8933 23.9842 64.3276 24.1331 63.8267 24.4164L40.4941 37.894V28.0054L59.7625 16.8641C62.5956 15.2216 65.8112 14.3541 69.0859 14.349V14.3502ZM19.8373 24.5856V48.2566C19.8373 49.4421 20.4469 50.492 21.4632 51.1016L44.761 64.5456L36.1587 69.5229L16.9239 58.4151C12.6254 55.9239 9.49091 51.829 8.20859 47.029C6.92627 42.2291 7.60088 37.1165 10.0843 32.8135C12.2751 29.0161 15.7254 26.1061 19.8373 24.5856ZM64.4698 30.4436L83.7383 41.5514C92.7125 46.7326 95.7591 58.1788 90.5778 67.153L90.6114 67.1866C88.4108 70.9796 84.9562 73.8918 80.8584 75.3821V51.7099C80.8584 50.5244 80.2489 49.4409 79.2325 48.8661L55.9011 35.3873L64.4698 30.4436ZM50.3143 38.6055L60.1357 44.2944V55.6385L50.3143 61.3274L40.4941 55.6385V44.2944L50.3143 38.6055ZM65.7561 47.5462L74.3236 52.4899V74.7389C74.3236 85.1015 65.9253 93.4998 55.5976 93.4998V93.4662C51.2286 93.4662 46.9617 91.9423 43.6091 89.1321C43.7447 89.0649 44.0495 88.8945 44.2186 88.7925L64.1302 77.3128C65.1466 76.7368 65.7897 75.6533 65.7549 74.4678L65.7561 47.5462ZM60.1681 62.1073V71.9947L40.8997 83.1024C31.9254 88.2501 20.4793 85.2023 15.298 76.2617H15.3316C13.1309 72.5023 12.351 68.0326 13.0961 63.732C13.2317 63.834 13.5029 63.9684 13.6721 64.0704L33.5837 75.5849C34.0846 75.8682 34.6503 76.0171 35.2258 76.0171C35.8013 76.0171 36.367 75.8682 36.8679 75.5849L60.1681 62.1073Z" fill="#0F0F0F"/>
</svg>
